<?xml version="1.0" encoding="utf-8"?>
<!-- Svg Vector Icons : http://www.onlinewebfonts.com/icon -->
<!DOCTYPE svg PUBLIC "-//W3C//DTD SVG 1.1//EN" "http://www.w3.org/Graphics/SVG/1.1/DTD/svg11.dtd">
<svg version="1.1" xmlns="http://www.w3.org/2000/svg" xmlns:xlink="http://www.w3.org/1999/xlink" x="0px" y="0px" viewBox="0 0 256 256" enable-background="new 0 0 256 256" xml:space="preserve">
<metadata> Svg Vector Icons : http://www.onlinewebfonts.com/icon </metadata>
<g><g><path fill="#000000" d="M129.5,202.4c0,0,0.1-0.1,0.3-0.4c0.3-1.5-3.8-5.9-3.8-5.9c0.2,0,0.4,0,0.7,0c-1.5-2.3-2.7-4.4-3.4-6c-0.1,0.2-0.2,0.5-0.3,0.6c-0.1,0.3-0.2,0.4-0.2,0.4c-1.9,0.1-3.8,0.2-5.7,0.3c2.6,2.6,12,12.6,11.1,23.4c0,0,10.7-1.5,13,0.3c-1.4-1.6-6.4-7.7-10.9-13.8c-0.2,0.2-0.4,0.4-0.5,0.6C129.7,202.1,129.6,202.3,129.5,202.4z"/><path fill="#000000" d="M141.2,215.2c0.2,0.3,0.4,0.4,0.4,0.4C141.5,215.5,141.4,215.3,141.2,215.2z"/><path fill="#000000" d="M123,190.7c-1-0.4-2.2-0.9-3.4-1.5l-3.1,1.6c0,0,0.3,0.2,0.7,0.7c1.9-0.1,3.7-0.2,5.7-0.3C122.8,191.2,122.9,191,123,190.7z"/><path fill="#000000" d="M122.7,187.6l-3.2,1.6c1.3,0.6,2.4,1.1,3.4,1.5c0.1-0.1,0.2-0.3,0.3-0.6C122.8,189,122.6,188.2,122.7,187.6z"/><path fill="#000000" d="M10.1,100.4c-0.1-0.2-0.1-0.3-0.1-0.3C10,100.1,10.1,100.2,10.1,100.4z"/><path fill="#000000" d="M138.1,192.9c0-1.2,0-2.4-0.1-3.5c-1.2,2.1-4.9,7.2-11.4,6.7c1.1,1.7,2.3,3.5,3.7,5.2c1.7-2.1,5.7-6.7,8.6-8c-0.2-0.1-0.3-0.2-0.5-0.2C138.2,193,138.1,192.9,138.1,192.9z"/><path fill="#000000" d="M126,196.1c0,0,4.1,4.4,3.8,5.9c0.1-0.2,0.3-0.4,0.5-0.6c-1.3-1.8-2.6-3.6-3.7-5.2C126.4,196.1,126.2,196.1,126,196.1z"/><path fill="#000000" d="M129.8,202c-0.2,0.3-0.3,0.4-0.3,0.4C129.6,202.3,129.7,202.1,129.8,202z"/><path fill="#000000" d="M138.4,193.1c0.3-0.7,0.7-1.5,1.1-2.4l-1-2.2c0,0-0.2,0.3-0.5,0.9c0,1.2,0,2.3,0.1,3.5C138.1,192.9,138.2,193,138.4,193.1z"/><path fill="#000000" d="M140.6,193l-1.1-2.3c-0.4,0.8-0.8,1.7-1.1,2.4c0.1,0,0.3,0.1,0.5,0.2C139.5,193,140.1,192.9,140.6,193z"/><path fill="#000000" d="M201.1,118.1c-4.1,1.7-11.8,5.5-18.1,12.1c-4.5,4.5-7.9,9.9-9.9,14.2c-1.4,3-2.1,5.3-2.4,6.5c8.9-7,18.8-12.4,28.3-15.8c12.9-4.7,24.8-6.1,33.3-6.5c8.5-0.3,13.6,0.3,13.6,0.2c-0.2,0-1.2,0-2.8,0c0.8,0,1.6,0.1,2.4,0.1c0.3-0.1,0.5-0.1,0.5-0.1S224.8,119.3,201.1,118.1z"/><path fill="#000000" d="M184.2,143.5c-2,1.1-4,2.4-5.9,3.7c0.8-0.2,1.9-0.6,3.2-0.9c2.5-1.6,5-3.2,7.8-4.6c9.8-5.4,27.5-10.9,43.1-12.4c-2,0.1-4.3,0.4-6.7,0.7C214,131.1,198.4,135.2,184.2,143.5z"/><path fill="#000000" d="M139.5,190.7c4.8-9.6,16.8-28.5,41.9-44.5c-1.3,0.4-2.4,0.7-3.2,0.9c-11.8,7.8-21.7,18.1-28.1,26.9l11.8-15.4c2.7-2.7,5.7-5.3,8.7-7.7c0.6-3.9,0.9-8.5,3.8-12.9c3-4.8,9-9.3,13.2-12.5c5.2-3.9,10.1-6.2,13.2-7.4c-29.9-1.4-63.5,10.5-62.7,71.3c0.3-0.5,0.5-0.9,0.5-0.9L139.5,190.7z M160.2,145.4c2.5-4.6,6.6-8.9,10-12.4c5.1-5.8,9.7-8.7,9.7-8.7c-0.2,0.2-3.1,2.1-6.7,5.8c-0.9,0.9-1.9,1.9-3,3c-1.5,1.7-3.1,3.7-4.6,6c-6.7,9.5-11.7,22.7-13.2,31.4C152.2,170.5,153.4,157.4,160.2,145.4z"/><path fill="#000000" d="M232.4,129.1c-15.6,1.5-33.3,7-43.1,12.4c-2.7,1.5-5.3,3.1-7.8,4.6c4.1-1.1,10.2-2.6,15.4-3.2c4.3-0.5,6.2-0.1,9.3,0.6c3.1,0.7,4.9,1.8,4.9,1.9c-5-2.6-13.8-2.5-21.1-1.2c-3.3,0.6-6.2,1.3-8.5,1.9c-25.1,16-37.1,34.9-41.9,44.5l1.1,2.3c-0.5-0.1-1.1,0-1.7,0.3c5.8,3,50.2,25.6,68.9-10.4c23.4-45,33.8-53,37.8-54c-0.8-0.1-1.6-0.1-2.4-0.1C240.8,128.8,237.1,128.8,232.4,129.1z M158.6,188.7c-8,0.4-15.2-4.6-15.1-4.7c4.7,1.7,12.4,3.3,19,2.1c6.7-1,11.6-4.6,11.6-4.5C174.1,181.9,166.7,188.8,158.6,188.7z M168.9,169.9c-4.3-1.8-4.3-7-4.3-6.9c0.1,0.1,0.7,1.4,2.2,2.8s3.9,2.7,6.5,3.4c3.2,0.9,9.3,0.1,13.8-0.7c2.2-0.5,4.1-0.9,5.1-1c0,0-2.1,0.5-5.1,1C181,169.7,172,171.3,168.9,169.9z"/><path fill="#000000" d="M232.4,129.1c4.7-0.3,8.4-0.4,10.8-0.4C239.7,128.6,236.1,128.8,232.4,129.1z"/><path fill="#000000" d="M161.9,158.6"/><path fill="#000000" d="M11.5,110.3c3.1,5.9,9.7,17,19.7,25.5c6.9,6,14.9,10.4,21.1,12.6c4.3,1.6,7.6,2.3,9.3,2.6c-11.1-12.3-20.3-26.5-26.8-40.4C26,91.8,21.9,73.9,19.9,61.2c-2-12.8-2.1-20.7-2.2-20.7c0.1,0.3,0.2,1.8,0.5,4.3c-0.1-1.2-0.2-2.5-0.3-3.6c-0.2-0.5-0.2-0.8-0.2-0.8S8.7,74.2,11.5,110.3z"/><path fill="#000000" d="M49,131.9c1.9,2.9,3.9,5.6,6,8.4c-0.5-1.2-1.1-2.8-1.9-4.7c-2.6-3.5-5.2-7.1-7.8-11.1c-9.2-14-19.8-39.9-24.8-63.4c0.6,3.1,1.3,6.4,2.1,10C26.8,88.6,35.1,111.6,49,131.9z"/><path fill="#000000" d="M121.4,191.8c-14-5.7-41.8-20.8-68.2-56.3c0.7,2,1.4,3.6,1.9,4.7c12.8,16.5,28.5,30,41.7,38.3l-23.1-15.4c-4.2-3.7-8.2-7.7-12-11.9c-5.4-0.2-11.7,0-18.3-3.6c-7.1-3.8-14.3-12.1-19.4-18c-6.3-7.2-10.3-14.3-12.5-18.8c3.5,45.6,25.9,94.7,108.4,83.5c-0.8-0.4-0.2-1-0.2-1L121.4,191.8z M56,167.9c-6.6-3.1-13.3-8.5-18.6-13.1c-8.8-6.8-13.7-13.3-13.6-13.2c0.3,0.2,3.4,4.3,9.1,9.2c1.3,1.2,2.9,2.6,4.6,4c2.6,2,5.6,4.1,9,6c14.2,8.6,33,14,45.1,14.9C91.6,175.9,73.6,176.2,56,167.9z"/><path fill="#000000" d="M20.7,61c4.9,23.5,15.7,49.4,24.8,63.4c2.6,3.9,5.2,7.5,7.8,11.1c-2.3-6-5.5-15-7.2-22.9c-1.5-6.5-1.3-9.5-0.9-14.2c0.3-4.8,1.6-7.7,1.6-7.7c-2.6,8-0.9,21.4,2.3,32.2c1.4,4.8,2.9,9.2,4.2,12.6c26.4,35.5,54.2,50.6,68.2,56.3l1.8-1.7c-0.1,0.8,0.6,1.4,1.1,2.3c3-9.3,26.2-80.4-26.1-102.9C32.8,61.4,20,47,17.9,41.1c0,1.2,0.2,2.4,0.3,3.6C18.6,48.3,19.3,54,20.7,61z M115.2,163.2c2,12-3.5,23.8-3.6,23.7c1.5-7.4,2.2-19.3-0.7-29.2c-2.6-10-8.3-16.9-8.2-16.9C103.1,140.9,113.8,151,115.2,163.2z M87.8,150.7c-1.7,6.9-8.6,7.7-8.6,7.7c0.1-0.1,1.8-1.3,3.4-3.8c1.6-2.5,3-6.4,3.4-10.5c0.6-4.9-1.6-14.2-3.5-20.8c-1-3.3-1.9-6.1-2.3-7.5c0,0,1.1,3.2,2.3,7.5C85.3,132.3,89.1,145.8,87.8,150.7z"/><path fill="#000000" d="M20.7,61c-1.3-7.1-2-12.7-2.5-16.3C18.6,49.9,19.5,55.4,20.7,61z"/><path fill="#000000" d="M73.7,163.1"/></g></g>
</svg>